<svg width="33" height="36" viewBox="0 0 33 36" fill="none" xmlns="http://www.w3.org/2000/svg">
<g clip-path="url(#clip0_49_7)">
<path d="M31.68 0H1.32C0.589875 0 0 0.6435 0 1.44V34.56C0 35.3565 0.589875 36 1.32 36H31.68C32.4101 36 33 35.3565 33 34.56V1.44C33 0.6435 32.4101 0 31.68 0ZM27.8685 10.5075H25.2326C23.166 10.5075 22.7659 11.5785 22.7659 13.1535V16.623H27.6994L27.0559 22.0545H22.7659V36H17.622V22.059H13.3196V16.623H17.622V12.618C17.622 7.9695 20.2249 5.436 24.0281 5.436C25.8514 5.436 27.4148 5.5845 27.8726 5.652V10.5075H27.8685Z" fill="#335BF5"/>
</g>
<defs>
<clipPath id="clip0_49_7">
<rect width="33" height="36" fill="white"/>
</clipPath>
</defs>
</svg>
