<svg width="33" height="36" viewBox="0 0 33 36" fill="none" xmlns="http://www.w3.org/2000/svg">
<g clip-path="url(#clip0_49_9)">
<path d="M16.5024 8.77103C11.8205 8.77103 8.04205 12.893 8.04205 18.0005C8.04205 23.108 11.8205 27.23 16.5024 27.23C21.1843 27.23 24.9628 23.108 24.9628 18.0005C24.9628 12.893 21.1843 8.77103 16.5024 8.77103ZM16.5024 23.999C13.4747 23.999 11.0038 21.3035 11.0038 18.0005C11.0038 14.6975 13.4747 12.002 16.5024 12.002C19.5302 12.002 22.001 14.6975 22.001 18.0005C22.001 21.3035 19.5302 23.999 16.5024 23.999ZM25.3093 6.24203C24.2162 6.24203 23.3334 7.20503 23.3334 8.39753C23.3334 9.59003 24.2162 10.553 25.3093 10.553C26.4024 10.553 27.2852 9.59453 27.2852 8.39753C27.2855 8.11437 27.2346 7.83392 27.1354 7.57224C27.0363 7.31056 26.8907 7.0728 26.7072 6.87257C26.5236 6.67234 26.3057 6.51359 26.0658 6.40539C25.826 6.29719 25.5689 6.24168 25.3093 6.24203ZM32.9942 18.0005C32.9942 15.5165 33.0148 13.055 32.8869 10.5755C32.759 7.69553 32.1568 5.13953 30.2263 3.03353C28.2917 0.923033 25.9528 0.270534 23.3128 0.131034C21.0358 -0.00846625 18.7794 0.0140338 16.5065 0.0140338C14.2295 0.0140338 11.9732 -0.00846625 9.7003 0.131034C7.0603 0.270534 4.7173 0.927534 2.7868 3.03353C0.852177 5.14403 0.254052 7.69553 0.126177 10.5755C-0.0016979 13.0595 0.0189272 15.521 0.0189272 18.0005C0.0189272 20.48 -0.0016979 22.946 0.126177 25.4255C0.254052 28.3055 0.856302 30.8615 2.7868 32.9675C4.72143 35.078 7.0603 35.7305 9.7003 35.87C11.9773 36.0095 14.2337 35.987 16.5065 35.987C18.7835 35.987 21.0399 36.0095 23.3128 35.87C25.9528 35.7305 28.2958 35.0735 30.2263 32.9675C32.1609 30.857 32.759 28.3055 32.8869 25.4255C33.0189 22.946 32.9942 20.4845 32.9942 18.0005ZM29.3642 28.6115C29.063 29.4305 28.7 30.0425 28.1184 30.6725C27.5368 31.307 26.9799 31.703 26.2292 32.0315C24.0594 32.972 18.9073 32.7605 16.5024 32.7605C14.0975 32.7605 8.9413 32.972 6.77155 32.036C6.0208 31.7075 5.4598 31.3115 4.8823 30.677C4.30068 30.0425 3.93768 29.435 3.63655 28.616C2.77855 26.2445 2.97243 20.624 2.97243 18.0005C2.97243 15.377 2.77855 9.75203 3.63655 7.38503C3.93768 6.56603 4.30068 5.95403 4.8823 5.32403C5.46393 4.69403 6.0208 4.29353 6.77155 3.96503C8.9413 3.02903 14.0975 3.24053 16.5024 3.24053C18.9073 3.24053 24.0636 3.02903 26.2333 3.96503C26.9841 4.29353 27.545 4.68953 28.1225 5.32403C28.7042 5.95853 29.0672 6.56603 29.3683 7.38503C30.2263 9.75203 30.0324 15.377 30.0324 18.0005C30.0324 20.624 30.2263 26.2445 29.3642 28.6115Z" fill="#E61F5A"/>
</g>
<defs>
<clipPath id="clip0_49_9">
<rect width="33" height="36" fill="white"/>
</clipPath>
</defs>
</svg>
