<svg width="41" height="36" viewBox="0 0 41 36" fill="none" xmlns="http://www.w3.org/2000/svg">
<g clip-path="url(#clip0_49_11)">
<path d="M41.0007 4.27635C39.4946 4.97931 37.8556 5.48523 36.1674 5.68227C37.9201 4.55559 39.2327 2.77564 39.8588 0.676353C38.2141 1.73499 36.4122 2.47733 34.5333 2.87043C33.7479 1.96205 32.7981 1.2384 31.743 0.744558C30.6879 0.250717 29.5501 -0.00272547 28.4005 2.21027e-05C23.7492 2.21027e-05 20.0085 4.07931 20.0085 9.08522C20.0085 9.78818 20.0873 10.4911 20.2153 11.1675C13.2507 10.7734 7.03916 7.17339 2.90963 1.66156C2.15718 3.05211 1.76288 4.63542 1.76773 6.24676C1.76773 9.39942 3.24924 12.1793 5.50843 13.8142C4.17706 13.7575 2.87686 13.3615 1.71359 12.6586V12.7704C1.71359 17.1852 4.59786 20.8438 8.44192 21.6852C7.72016 21.8881 6.97767 21.9918 6.23196 21.9941C5.68562 21.9941 5.16881 21.9355 4.64708 21.8556C5.71023 25.4556 8.80614 28.0704 12.4927 28.1556C9.60842 30.6 5.9957 32.0379 2.07289 32.0379C1.36905 32.0379 0.719353 32.0112 0.0450439 31.926C3.76605 34.5089 8.18105 36 12.9357 36C28.371 36 36.8171 22.1645 36.8171 10.1556C36.8171 9.76155 36.8171 9.36747 36.7924 8.97339C38.4265 7.67931 39.8588 6.07635 41.0007 4.27635Z" fill="#21A6DF"/>
</g>
<defs>
<clipPath id="clip0_49_11">
<rect width="41" height="36" fill="white"/>
</clipPath>
</defs>
</svg>
