<svg width="47" height="36" viewBox="0 0 47 36" fill="none" xmlns="http://www.w3.org/2000/svg">
<g clip-path="url(#clip0_49_13)">
<path d="M45.9619 5.64654C45.6947 4.56158 45.1715 3.57235 44.4447 2.77786C43.7178 1.98337 42.8128 1.41149 41.8202 1.11945C38.1648 0.0380863 23.4762 0.0380859 23.4762 0.0380859C23.4762 0.0380859 8.7876 0.0380863 5.13222 1.11945C4.13963 1.41149 3.23462 1.98337 2.50777 2.77786C1.78093 3.57235 1.25774 4.56158 0.990563 5.64654C0.308022 9.7214 -0.0231974 13.8573 0.00126167 17.9998C-0.0231974 22.1423 0.308022 26.2782 0.990563 30.353C1.25774 31.438 1.78093 32.4272 2.50777 33.2217C3.23462 34.0162 4.13963 34.5881 5.13222 34.8801C8.7876 35.9615 23.4762 35.9615 23.4762 35.9615C23.4762 35.9615 38.1648 35.9615 41.8202 34.8801C42.8128 34.5881 43.7178 34.0162 44.4447 33.2217C45.1715 32.4272 45.6947 31.438 45.9619 30.353C46.6444 26.2782 46.9756 22.1423 46.9512 17.9998C46.9756 13.8573 46.6444 9.7214 45.9619 5.64654ZM18.7812 25.6977V10.3019L30.9714 17.9998L18.7812 25.6977Z" fill="#E42F08"/>
</g>
<defs>
<clipPath id="clip0_49_13">
<rect width="47" height="36" fill="white"/>
</clipPath>
</defs>
</svg>
